<mxfile host="app.diagrams.net" agent="Mozilla/5.0 (Macintosh; Intel Mac OS X 10_15_7) AppleWebKit/537.36 (KHTML, like Gecko) Chrome/116.0.0.0 Safari/537.36" version="26.2.14">
  <diagram id="C5RBs43oDa-KdzZeNtuy" name="Page-1">
    <mxGraphModel dx="1708" dy="928" grid="1" gridSize="10" guides="1" tooltips="1" connect="1" arrows="1" fold="1" page="1" pageScale="1" pageWidth="827" pageHeight="1169" math="0" shadow="0">
      <root>
        <mxCell id="WIyWlLk6GJQsqaUBKTNV-0" />
        <mxCell id="WIyWlLk6GJQsqaUBKTNV-1" parent="WIyWlLk6GJQsqaUBKTNV-0" />
        <mxCell id="vuiKDR4Na3Bbw7I5hfLM-0" value="Job" style="swimlane;fontStyle=1;align=center;verticalAlign=top;childLayout=stackLayout;horizontal=1;startSize=26;horizontalStack=0;resizeParent=1;resizeParentMax=0;resizeLast=0;collapsible=1;marginBottom=0;whiteSpace=wrap;html=1;" parent="WIyWlLk6GJQsqaUBKTNV-1" vertex="1">
          <mxGeometry x="957" y="461" width="272" height="132" as="geometry" />
        </mxCell>
        <mxCell id="vuiKDR4Na3Bbw7I5hfLM-1" value="+ jobID: int&lt;div&gt;+ List&amp;lt;Task&amp;gt; Tasks&lt;/div&gt;&lt;div&gt;+ Fitness: int&lt;/div&gt;&lt;div&gt;- Stack&amp;lt;Task&amp;gt; JobStack&lt;br&gt;&lt;div&gt;&lt;br&gt;&lt;/div&gt;&lt;/div&gt;" style="text;strokeColor=#000000;fillColor=#FFFFFF;align=left;verticalAlign=top;spacingLeft=4;spacingRight=4;overflow=hidden;rotatable=0;points=[[0,0.5],[1,0.5]];portConstraint=eastwest;whiteSpace=wrap;html=1;" parent="vuiKDR4Na3Bbw7I5hfLM-0" vertex="1">
          <mxGeometry y="26" width="272" height="74" as="geometry" />
        </mxCell>
        <mxCell id="vuiKDR4Na3Bbw7I5hfLM-3" value="+ AddTask(Task): void" style="text;strokeColor=#000000;fillColor=#FFFFFF;align=left;verticalAlign=top;spacingLeft=4;spacingRight=4;overflow=hidden;rotatable=0;points=[[0,0.5],[1,0.5]];portConstraint=eastwest;whiteSpace=wrap;html=1;" parent="vuiKDR4Na3Bbw7I5hfLM-0" vertex="1">
          <mxGeometry y="100" width="272" height="32" as="geometry" />
        </mxCell>
        <mxCell id="vuiKDR4Na3Bbw7I5hfLM-12" value="GAJSS" style="swimlane;fontStyle=1;align=center;verticalAlign=top;childLayout=stackLayout;horizontal=1;startSize=26;horizontalStack=0;resizeParent=1;resizeParentMax=0;resizeLast=0;collapsible=1;marginBottom=0;whiteSpace=wrap;html=1;" parent="WIyWlLk6GJQsqaUBKTNV-1" vertex="1">
          <mxGeometry x="278" y="231" width="260" height="218" as="geometry" />
        </mxCell>
        <mxCell id="vuiKDR4Na3Bbw7I5hfLM-13" value="- Random: random&lt;div&gt;- jobs : List&amp;lt;Job&amp;gt;&lt;/div&gt;&lt;div&gt;- machine : Dictionary&amp;lt;int,int&amp;gt;&lt;/div&gt;&lt;div&gt;- time : Dictionary&amp;lt;int, int&amp;gt;&lt;/div&gt;&lt;div&gt;- populationSize : int&lt;/div&gt;&lt;div&gt;- mutationRate : double&lt;/div&gt;&lt;div&gt;- maxGenerations : int&lt;/div&gt;&lt;div&gt;- tournamentSize : int&lt;/div&gt;" style="text;strokeColor=none;fillColor=none;align=left;verticalAlign=top;spacingLeft=4;spacingRight=4;overflow=hidden;rotatable=0;points=[[0,0.5],[1,0.5]];portConstraint=eastwest;whiteSpace=wrap;html=1;" parent="vuiKDR4Na3Bbw7I5hfLM-12" vertex="1">
          <mxGeometry y="26" width="260" height="134" as="geometry" />
        </mxCell>
        <mxCell id="vuiKDR4Na3Bbw7I5hfLM-14" value="" style="line;strokeWidth=1;fillColor=none;align=left;verticalAlign=middle;spacingTop=-1;spacingLeft=3;spacingRight=3;rotatable=0;labelPosition=right;points=[];portConstraint=eastwest;strokeColor=inherit;" parent="vuiKDR4Na3Bbw7I5hfLM-12" vertex="1">
          <mxGeometry y="160" width="260" height="8" as="geometry" />
        </mxCell>
        <mxCell id="vuiKDR4Na3Bbw7I5hfLM-15" value="- List&amp;lt;Job&amp;gt; InitialisePopulation()&lt;div&gt;+ Solve() : Job&lt;/div&gt;" style="text;strokeColor=none;fillColor=none;align=left;verticalAlign=top;spacingLeft=4;spacingRight=4;overflow=hidden;rotatable=0;points=[[0,0.5],[1,0.5]];portConstraint=eastwest;whiteSpace=wrap;html=1;" parent="vuiKDR4Na3Bbw7I5hfLM-12" vertex="1">
          <mxGeometry y="168" width="260" height="50" as="geometry" />
        </mxCell>
        <mxCell id="46v5_HQICfvaA86znRNs-0" value="" style="group" parent="WIyWlLk6GJQsqaUBKTNV-1" vertex="1" connectable="0">
          <mxGeometry x="957" y="281" width="270" height="132" as="geometry" />
        </mxCell>
        <mxCell id="vuiKDR4Na3Bbw7I5hfLM-4" value="Task" style="swimlane;fontStyle=1;align=center;verticalAlign=top;childLayout=stackLayout;horizontal=1;startSize=26;horizontalStack=0;resizeParent=1;resizeParentMax=0;resizeLast=0;collapsible=1;marginBottom=0;whiteSpace=wrap;html=1;" parent="46v5_HQICfvaA86znRNs-0" vertex="1">
          <mxGeometry width="270" height="120" as="geometry" />
        </mxCell>
        <mxCell id="vuiKDR4Na3Bbw7I5hfLM-5" value="&lt;div&gt;+ jobID: int&lt;/div&gt;+ operationID: int&lt;div&gt;+ Subdivision: string&lt;/div&gt;&lt;div&gt;+ processingTime: int&lt;/div&gt;&lt;div&gt;+ startTime: int&lt;/div&gt;&lt;div&gt;&lt;br&gt;&lt;/div&gt;" style="text;strokeColor=#000000;fillColor=#FFFFFF;align=left;verticalAlign=top;spacingLeft=4;spacingRight=4;overflow=hidden;rotatable=0;points=[[0,0.5],[1,0.5]];portConstraint=eastwest;whiteSpace=wrap;html=1;" parent="vuiKDR4Na3Bbw7I5hfLM-4" vertex="1">
          <mxGeometry y="26" width="270" height="94" as="geometry" />
        </mxCell>
        <mxCell id="_yBBWMGjhQ3XgNHgMAnh-1" value="Fitness" style="swimlane;fontStyle=1;align=center;verticalAlign=top;childLayout=stackLayout;horizontal=1;startSize=26;horizontalStack=0;resizeParent=1;resizeParentMax=0;resizeLast=0;collapsible=1;marginBottom=0;whiteSpace=wrap;html=1;" parent="WIyWlLk6GJQsqaUBKTNV-1" vertex="1">
          <mxGeometry x="20" y="527" width="136" height="160" as="geometry" />
        </mxCell>
        <mxCell id="_yBBWMGjhQ3XgNHgMAnh-2" value="&lt;div&gt;&lt;br&gt;&lt;/div&gt;" style="text;strokeColor=none;fillColor=none;align=left;verticalAlign=top;spacingLeft=4;spacingRight=4;overflow=hidden;rotatable=0;points=[[0,0.5],[1,0.5]];portConstraint=eastwest;whiteSpace=wrap;html=1;" parent="_yBBWMGjhQ3XgNHgMAnh-1" vertex="1">
          <mxGeometry y="26" width="136" height="44" as="geometry" />
        </mxCell>
        <mxCell id="_yBBWMGjhQ3XgNHgMAnh-3" value="" style="line;strokeWidth=1;fillColor=none;align=left;verticalAlign=middle;spacingTop=-1;spacingLeft=3;spacingRight=3;rotatable=0;labelPosition=right;points=[];portConstraint=eastwest;strokeColor=inherit;" parent="_yBBWMGjhQ3XgNHgMAnh-1" vertex="1">
          <mxGeometry y="70" width="136" height="8" as="geometry" />
        </mxCell>
        <mxCell id="_yBBWMGjhQ3XgNHgMAnh-4" value="- CalculateFitness(Job) : void" style="text;strokeColor=none;fillColor=none;align=left;verticalAlign=top;spacingLeft=4;spacingRight=4;overflow=hidden;rotatable=0;points=[[0,0.5],[1,0.5]];portConstraint=eastwest;whiteSpace=wrap;html=1;" parent="_yBBWMGjhQ3XgNHgMAnh-1" vertex="1">
          <mxGeometry y="78" width="136" height="82" as="geometry" />
        </mxCell>
        <mxCell id="_yBBWMGjhQ3XgNHgMAnh-5" value="Selection" style="swimlane;fontStyle=1;align=center;verticalAlign=top;childLayout=stackLayout;horizontal=1;startSize=26;horizontalStack=0;resizeParent=1;resizeParentMax=0;resizeLast=0;collapsible=1;marginBottom=0;whiteSpace=wrap;html=1;" parent="WIyWlLk6GJQsqaUBKTNV-1" vertex="1">
          <mxGeometry x="185" y="528" width="160" height="160" as="geometry" />
        </mxCell>
        <mxCell id="_yBBWMGjhQ3XgNHgMAnh-6" value="&lt;div&gt;- fitnessCalculator : Fitness&lt;/div&gt;" style="text;strokeColor=none;fillColor=none;align=left;verticalAlign=top;spacingLeft=4;spacingRight=4;overflow=hidden;rotatable=0;points=[[0,0.5],[1,0.5]];portConstraint=eastwest;whiteSpace=wrap;html=1;" parent="_yBBWMGjhQ3XgNHgMAnh-5" vertex="1">
          <mxGeometry y="26" width="160" height="44" as="geometry" />
        </mxCell>
        <mxCell id="_yBBWMGjhQ3XgNHgMAnh-7" value="" style="line;strokeWidth=1;fillColor=none;align=left;verticalAlign=middle;spacingTop=-1;spacingLeft=3;spacingRight=3;rotatable=0;labelPosition=right;points=[];portConstraint=eastwest;strokeColor=inherit;" parent="_yBBWMGjhQ3XgNHgMAnh-5" vertex="1">
          <mxGeometry y="70" width="160" height="8" as="geometry" />
        </mxCell>
        <mxCell id="_yBBWMGjhQ3XgNHgMAnh-8" value="&lt;div&gt;&lt;span style=&quot;background-color: transparent;&quot;&gt;+ TournamentSelection&lt;/span&gt;&lt;/div&gt;&lt;div&gt;&lt;span style=&quot;background-color: transparent;&quot;&gt;(List&amp;lt;Job&amp;gt;)&lt;/span&gt;&lt;br&gt;&lt;/div&gt;&lt;div&gt;&lt;span style=&quot;background-color: transparent;&quot;&gt;+ GetBestJob(List&amp;lt;Job&amp;gt;)&lt;/span&gt;&lt;/div&gt;&lt;div&gt;&lt;span style=&quot;background-color: transparent;&quot;&gt;&lt;br&gt;&lt;/span&gt;&lt;/div&gt;" style="text;strokeColor=none;fillColor=none;align=left;verticalAlign=top;spacingLeft=4;spacingRight=4;overflow=hidden;rotatable=0;points=[[0,0.5],[1,0.5]];portConstraint=eastwest;whiteSpace=wrap;html=1;" parent="_yBBWMGjhQ3XgNHgMAnh-5" vertex="1">
          <mxGeometry y="78" width="160" height="82" as="geometry" />
        </mxCell>
        <mxCell id="_yBBWMGjhQ3XgNHgMAnh-9" value="Combine" style="swimlane;fontStyle=1;align=center;verticalAlign=top;childLayout=stackLayout;horizontal=1;startSize=26;horizontalStack=0;resizeParent=1;resizeParentMax=0;resizeLast=0;collapsible=1;marginBottom=0;whiteSpace=wrap;html=1;" parent="WIyWlLk6GJQsqaUBKTNV-1" vertex="1">
          <mxGeometry x="370" y="528" width="160" height="160" as="geometry" />
        </mxCell>
        <mxCell id="_yBBWMGjhQ3XgNHgMAnh-10" value="&lt;div&gt;- fitnessCalculator : Fitness&lt;br&gt;&lt;/div&gt;" style="text;strokeColor=none;fillColor=none;align=left;verticalAlign=top;spacingLeft=4;spacingRight=4;overflow=hidden;rotatable=0;points=[[0,0.5],[1,0.5]];portConstraint=eastwest;whiteSpace=wrap;html=1;" parent="_yBBWMGjhQ3XgNHgMAnh-9" vertex="1">
          <mxGeometry y="26" width="160" height="44" as="geometry" />
        </mxCell>
        <mxCell id="_yBBWMGjhQ3XgNHgMAnh-11" value="" style="line;strokeWidth=1;fillColor=none;align=left;verticalAlign=middle;spacingTop=-1;spacingLeft=3;spacingRight=3;rotatable=0;labelPosition=right;points=[];portConstraint=eastwest;strokeColor=inherit;" parent="_yBBWMGjhQ3XgNHgMAnh-9" vertex="1">
          <mxGeometry y="70" width="160" height="8" as="geometry" />
        </mxCell>
        <mxCell id="_yBBWMGjhQ3XgNHgMAnh-12" value="- Crossover(Job,Job)" style="text;strokeColor=none;fillColor=none;align=left;verticalAlign=top;spacingLeft=4;spacingRight=4;overflow=hidden;rotatable=0;points=[[0,0.5],[1,0.5]];portConstraint=eastwest;whiteSpace=wrap;html=1;" parent="_yBBWMGjhQ3XgNHgMAnh-9" vertex="1">
          <mxGeometry y="78" width="160" height="82" as="geometry" />
        </mxCell>
        <mxCell id="_yBBWMGjhQ3XgNHgMAnh-21" value="" style="shape=partialRectangle;whiteSpace=wrap;html=1;bottom=0;right=0;fillColor=none;" parent="WIyWlLk6GJQsqaUBKTNV-1" vertex="1">
          <mxGeometry x="20" y="497" width="866" height="58" as="geometry" />
        </mxCell>
        <mxCell id="_yBBWMGjhQ3XgNHgMAnh-24" value="" style="endArrow=none;html=1;rounded=0;exitX=1;exitY=0.75;exitDx=0;exitDy=0;entryX=1;entryY=0;entryDx=0;entryDy=0;" parent="WIyWlLk6GJQsqaUBKTNV-1" edge="1">
          <mxGeometry width="50" height="50" relative="1" as="geometry">
            <mxPoint x="887" y="532" as="sourcePoint" />
            <mxPoint x="887" y="496" as="targetPoint" />
          </mxGeometry>
        </mxCell>
        <mxCell id="_yBBWMGjhQ3XgNHgMAnh-25" value="Extends" style="endArrow=block;endSize=16;endFill=0;html=1;rounded=0;exitX=0.457;exitY=-0.029;exitDx=0;exitDy=0;exitPerimeter=0;" parent="WIyWlLk6GJQsqaUBKTNV-1" source="_yBBWMGjhQ3XgNHgMAnh-21" edge="1">
          <mxGeometry width="160" relative="1" as="geometry">
            <mxPoint x="318" y="512.52" as="sourcePoint" />
            <mxPoint x="414" y="451" as="targetPoint" />
          </mxGeometry>
        </mxCell>
        <mxCell id="_yBBWMGjhQ3XgNHgMAnh-26" value="JobLoader" style="swimlane;fontStyle=1;align=center;verticalAlign=top;childLayout=stackLayout;horizontal=1;startSize=26;horizontalStack=0;resizeParent=1;resizeParentMax=0;resizeLast=0;collapsible=1;marginBottom=0;whiteSpace=wrap;html=1;" parent="WIyWlLk6GJQsqaUBKTNV-1" vertex="1">
          <mxGeometry x="962" y="631" width="260" height="140" as="geometry" />
        </mxCell>
        <mxCell id="_yBBWMGjhQ3XgNHgMAnh-27" value="&lt;div&gt;&lt;div&gt;+ SelectedJob : string&lt;/div&gt;&lt;/div&gt;" style="text;strokeColor=#000000;fillColor=#FFFFFF;align=left;verticalAlign=top;spacingLeft=4;spacingRight=4;overflow=hidden;rotatable=0;points=[[0,0.5],[1,0.5]];portConstraint=eastwest;whiteSpace=wrap;html=1;" parent="_yBBWMGjhQ3XgNHgMAnh-26" vertex="1">
          <mxGeometry y="26" width="260" height="44" as="geometry" />
        </mxCell>
        <mxCell id="_yBBWMGjhQ3XgNHgMAnh-28" value="+ LoadJobsFromCSV(Dictionary&amp;lt;int, List int, string, int&amp;gt;) : Job" style="text;strokeColor=#000000;fillColor=#FFFFFF;align=left;verticalAlign=top;spacingLeft=4;spacingRight=4;overflow=hidden;rotatable=0;points=[[0,0.5],[1,0.5]];portConstraint=eastwest;whiteSpace=wrap;html=1;" parent="_yBBWMGjhQ3XgNHgMAnh-26" vertex="1">
          <mxGeometry y="70" width="260" height="70" as="geometry" />
        </mxCell>
        <mxCell id="6pNd7uK-casRPseIqEdg-1" value="MutateChild" style="swimlane;fontStyle=1;align=center;verticalAlign=top;childLayout=stackLayout;horizontal=1;startSize=26;horizontalStack=0;resizeParent=1;resizeParentMax=0;resizeLast=0;collapsible=1;marginBottom=0;whiteSpace=wrap;html=1;" vertex="1" parent="WIyWlLk6GJQsqaUBKTNV-1">
          <mxGeometry x="550" y="527" width="148" height="160" as="geometry" />
        </mxCell>
        <mxCell id="6pNd7uK-casRPseIqEdg-2" value="&lt;div&gt;- Random : random&lt;/div&gt;" style="text;strokeColor=none;fillColor=none;align=left;verticalAlign=top;spacingLeft=4;spacingRight=4;overflow=hidden;rotatable=0;points=[[0,0.5],[1,0.5]];portConstraint=eastwest;whiteSpace=wrap;html=1;" vertex="1" parent="6pNd7uK-casRPseIqEdg-1">
          <mxGeometry y="26" width="148" height="44" as="geometry" />
        </mxCell>
        <mxCell id="6pNd7uK-casRPseIqEdg-3" value="" style="line;strokeWidth=1;fillColor=none;align=left;verticalAlign=middle;spacingTop=-1;spacingLeft=3;spacingRight=3;rotatable=0;labelPosition=right;points=[];portConstraint=eastwest;strokeColor=inherit;" vertex="1" parent="6pNd7uK-casRPseIqEdg-1">
          <mxGeometry y="70" width="148" height="8" as="geometry" />
        </mxCell>
        <mxCell id="6pNd7uK-casRPseIqEdg-4" value="+ Mutate(Job,Job)&lt;div&gt;+ SetRandom(Random)&lt;/div&gt;" style="text;strokeColor=none;fillColor=none;align=left;verticalAlign=top;spacingLeft=4;spacingRight=4;overflow=hidden;rotatable=0;points=[[0,0.5],[1,0.5]];portConstraint=eastwest;whiteSpace=wrap;html=1;" vertex="1" parent="6pNd7uK-casRPseIqEdg-1">
          <mxGeometry y="78" width="148" height="82" as="geometry" />
        </mxCell>
        <mxCell id="6pNd7uK-casRPseIqEdg-5" value="GAUtils" style="swimlane;fontStyle=1;align=center;verticalAlign=top;childLayout=stackLayout;horizontal=1;startSize=26;horizontalStack=0;resizeParent=1;resizeParentMax=0;resizeLast=0;collapsible=1;marginBottom=0;whiteSpace=wrap;html=1;" vertex="1" parent="WIyWlLk6GJQsqaUBKTNV-1">
          <mxGeometry x="733" y="527" width="154" height="160" as="geometry" />
        </mxCell>
        <mxCell id="6pNd7uK-casRPseIqEdg-6" value="&lt;div&gt;&lt;br&gt;&lt;/div&gt;" style="text;strokeColor=none;fillColor=none;align=left;verticalAlign=top;spacingLeft=4;spacingRight=4;overflow=hidden;rotatable=0;points=[[0,0.5],[1,0.5]];portConstraint=eastwest;whiteSpace=wrap;html=1;" vertex="1" parent="6pNd7uK-casRPseIqEdg-5">
          <mxGeometry y="26" width="154" height="44" as="geometry" />
        </mxCell>
        <mxCell id="6pNd7uK-casRPseIqEdg-7" value="" style="line;strokeWidth=1;fillColor=none;align=left;verticalAlign=middle;spacingTop=-1;spacingLeft=3;spacingRight=3;rotatable=0;labelPosition=right;points=[];portConstraint=eastwest;strokeColor=inherit;" vertex="1" parent="6pNd7uK-casRPseIqEdg-5">
          <mxGeometry y="70" width="154" height="8" as="geometry" />
        </mxCell>
        <mxCell id="6pNd7uK-casRPseIqEdg-8" value="+ Shuffle(List&amp;lt;&amp;gt;,Random)&lt;div&gt;+ IsValidSolution(Job)&lt;span style=&quot;background-color: transparent;&quot;&gt;:bool&lt;/span&gt;&lt;/div&gt;" style="text;strokeColor=none;fillColor=none;align=left;verticalAlign=top;spacingLeft=4;spacingRight=4;overflow=hidden;rotatable=0;points=[[0,0.5],[1,0.5]];portConstraint=eastwest;whiteSpace=wrap;html=1;" vertex="1" parent="6pNd7uK-casRPseIqEdg-5">
          <mxGeometry y="78" width="154" height="82" as="geometry" />
        </mxCell>
        <mxCell id="6pNd7uK-casRPseIqEdg-13" value="Scheduler" style="swimlane;fontStyle=1;align=center;verticalAlign=top;childLayout=stackLayout;horizontal=1;startSize=26;horizontalStack=0;resizeParent=1;resizeParentMax=0;resizeLast=0;collapsible=1;marginBottom=0;whiteSpace=wrap;html=1;" vertex="1" parent="WIyWlLk6GJQsqaUBKTNV-1">
          <mxGeometry x="1032" y="48" width="196" height="130" as="geometry" />
        </mxCell>
        <mxCell id="6pNd7uK-casRPseIqEdg-14" value="+ Schedule:&lt;div&gt;SortedDictionary&amp;lt;Tuple&amp;lt;int,int&amp;gt;&amp;gt;&lt;/div&gt;&lt;div&gt;&lt;br&gt;&lt;/div&gt;" style="text;strokeColor=none;fillColor=none;align=left;verticalAlign=top;spacingLeft=4;spacingRight=4;overflow=hidden;rotatable=0;points=[[0,0.5],[1,0.5]];portConstraint=eastwest;whiteSpace=wrap;html=1;" vertex="1" parent="6pNd7uK-casRPseIqEdg-13">
          <mxGeometry y="26" width="196" height="44" as="geometry" />
        </mxCell>
        <mxCell id="6pNd7uK-casRPseIqEdg-15" value="" style="line;strokeWidth=1;fillColor=none;align=left;verticalAlign=middle;spacingTop=-1;spacingLeft=3;spacingRight=3;rotatable=0;labelPosition=right;points=[];portConstraint=eastwest;strokeColor=inherit;" vertex="1" parent="6pNd7uK-casRPseIqEdg-13">
          <mxGeometry y="70" width="196" height="8" as="geometry" />
        </mxCell>
        <mxCell id="6pNd7uK-casRPseIqEdg-16" value="+ ScheduleTasks(Tasks[]): void&lt;div&gt;&lt;br&gt;&lt;/div&gt;" style="text;strokeColor=none;fillColor=none;align=left;verticalAlign=top;spacingLeft=4;spacingRight=4;overflow=hidden;rotatable=0;points=[[0,0.5],[1,0.5]];portConstraint=eastwest;whiteSpace=wrap;html=1;" vertex="1" parent="6pNd7uK-casRPseIqEdg-13">
          <mxGeometry y="78" width="196" height="52" as="geometry" />
        </mxCell>
        <mxCell id="6pNd7uK-casRPseIqEdg-17" value="ScheduleExporter" style="swimlane;fontStyle=1;align=center;verticalAlign=top;childLayout=stackLayout;horizontal=1;startSize=26;horizontalStack=0;resizeParent=1;resizeParentMax=0;resizeLast=0;collapsible=1;marginBottom=0;whiteSpace=wrap;html=1;" vertex="1" parent="WIyWlLk6GJQsqaUBKTNV-1">
          <mxGeometry x="626" y="40" width="280" height="260" as="geometry" />
        </mxCell>
        <mxCell id="6pNd7uK-casRPseIqEdg-18" value="- getSubdivisions : List&amp;lt;string&amp;gt;&lt;div&gt;- populateTimeRows : Dictionary&amp;lt;int,&amp;lt;string, Task&amp;gt;&amp;gt;&lt;/div&gt;" style="text;strokeColor=none;fillColor=none;align=left;verticalAlign=top;spacingLeft=4;spacingRight=4;overflow=hidden;rotatable=0;points=[[0,0.5],[1,0.5]];portConstraint=eastwest;whiteSpace=wrap;html=1;" vertex="1" parent="6pNd7uK-casRPseIqEdg-17">
          <mxGeometry y="26" width="280" height="54" as="geometry" />
        </mxCell>
        <mxCell id="6pNd7uK-casRPseIqEdg-19" value="" style="line;strokeWidth=1;fillColor=none;align=left;verticalAlign=middle;spacingTop=-1;spacingLeft=3;spacingRight=3;rotatable=0;labelPosition=right;points=[];portConstraint=eastwest;strokeColor=inherit;" vertex="1" parent="6pNd7uK-casRPseIqEdg-17">
          <mxGeometry y="80" width="280" height="8" as="geometry" />
        </mxCell>
        <mxCell id="6pNd7uK-casRPseIqEdg-20" value="&lt;div&gt;+ ExportScheduleToCSV(string) : void&lt;/div&gt;&lt;div&gt;+ PrintSchedule(): void&lt;/div&gt;&lt;div&gt;+ WriteSummaryStatistics(Worksheet, List&amp;lt;&amp;gt;)&lt;/div&gt;&lt;div&gt;- PopulateTimeRows(Dictionary,List&amp;lt;&amp;gt;)&lt;/div&gt;&lt;div&gt;- IsScheduleEmpty():bool&lt;/div&gt;&lt;div&gt;- GenerateExcelFile(string, List&amp;lt;string&amp;gt;, Dictionary&amp;lt;int, Dictionary&amp;lt;string, Task&amp;gt;&amp;gt;) : void&lt;/div&gt;&lt;div&gt;- WriteHeaderRow(Worksheet, List&amp;lt;string&amp;gt;) : void&lt;/div&gt;&lt;div&gt;- WriteScheduleRows(&lt;span style=&quot;background-color: transparent;&quot;&gt;Worksheet,&amp;nbsp;&lt;/span&gt;&lt;span style=&quot;background-color: transparent;&quot;&gt;List&amp;lt;string&amp;gt;, Dictionary&amp;lt;int, Dictionary&amp;lt;string, Task&amp;gt;&amp;gt;, Dictionary&amp;lt;int, Colour&amp;gt;&lt;/span&gt;&lt;/div&gt;&lt;div&gt;&lt;br&gt;&lt;/div&gt;" style="text;strokeColor=none;fillColor=none;align=left;verticalAlign=top;spacingLeft=4;spacingRight=4;overflow=hidden;rotatable=0;points=[[0,0.5],[1,0.5]];portConstraint=eastwest;whiteSpace=wrap;html=1;" vertex="1" parent="6pNd7uK-casRPseIqEdg-17">
          <mxGeometry y="88" width="280" height="172" as="geometry" />
        </mxCell>
        <mxCell id="6pNd7uK-casRPseIqEdg-21" value="" style="endArrow=block;dashed=1;endFill=0;endSize=12;html=1;rounded=0;exitX=1.002;exitY=1.019;exitDx=0;exitDy=0;exitPerimeter=0;" edge="1" parent="WIyWlLk6GJQsqaUBKTNV-1" source="6pNd7uK-casRPseIqEdg-18">
          <mxGeometry width="160" relative="1" as="geometry">
            <mxPoint x="885" y="114" as="sourcePoint" />
            <mxPoint x="1032" y="122" as="targetPoint" />
          </mxGeometry>
        </mxCell>
        <mxCell id="6pNd7uK-casRPseIqEdg-22" value="uses" style="text;html=1;align=center;verticalAlign=middle;resizable=0;points=[];autosize=1;strokeColor=none;fillColor=none;" vertex="1" parent="WIyWlLk6GJQsqaUBKTNV-1">
          <mxGeometry x="941" y="90" width="50" height="30" as="geometry" />
        </mxCell>
        <mxCell id="6pNd7uK-casRPseIqEdg-25" value="" style="endArrow=block;dashed=1;endFill=0;endSize=12;html=1;rounded=0;exitX=0.5;exitY=0;exitDx=0;exitDy=0;entryX=0.5;entryY=1;entryDx=0;entryDy=0;" edge="1" parent="WIyWlLk6GJQsqaUBKTNV-1" source="vuiKDR4Na3Bbw7I5hfLM-0" target="vuiKDR4Na3Bbw7I5hfLM-4">
          <mxGeometry width="160" relative="1" as="geometry">
            <mxPoint x="1030.5" y="441" as="sourcePoint" />
            <mxPoint x="1155.5" y="442" as="targetPoint" />
          </mxGeometry>
        </mxCell>
        <mxCell id="6pNd7uK-casRPseIqEdg-26" value="uses" style="text;html=1;align=center;verticalAlign=middle;resizable=0;points=[];autosize=1;strokeColor=none;fillColor=none;" vertex="1" parent="WIyWlLk6GJQsqaUBKTNV-1">
          <mxGeometry x="1087" y="421" width="50" height="30" as="geometry" />
        </mxCell>
        <mxCell id="6pNd7uK-casRPseIqEdg-30" value="Extends" style="endArrow=block;endSize=16;endFill=0;html=1;rounded=0;" edge="1" parent="WIyWlLk6GJQsqaUBKTNV-1">
          <mxGeometry width="160" relative="1" as="geometry">
            <mxPoint x="1097" y="631" as="sourcePoint" />
            <mxPoint x="1097" y="593" as="targetPoint" />
          </mxGeometry>
        </mxCell>
        <mxCell id="6pNd7uK-casRPseIqEdg-33" value="" style="endArrow=none;dashed=1;html=1;dashPattern=1 3;strokeWidth=2;rounded=0;entryX=0;entryY=1;entryDx=0;entryDy=0;exitX=0;exitY=0;exitDx=0;exitDy=0;" edge="1" parent="WIyWlLk6GJQsqaUBKTNV-1" source="vuiKDR4Na3Bbw7I5hfLM-0" target="vuiKDR4Na3Bbw7I5hfLM-4">
          <mxGeometry width="50" height="50" relative="1" as="geometry">
            <mxPoint x="927" y="461" as="sourcePoint" />
            <mxPoint x="977" y="411" as="targetPoint" />
          </mxGeometry>
        </mxCell>
        <mxCell id="6pNd7uK-casRPseIqEdg-34" value="1.." style="text;html=1;align=center;verticalAlign=middle;resizable=0;points=[];autosize=1;strokeColor=none;fillColor=none;" vertex="1" parent="WIyWlLk6GJQsqaUBKTNV-1">
          <mxGeometry x="917" y="449" width="40" height="30" as="geometry" />
        </mxCell>
        <mxCell id="6pNd7uK-casRPseIqEdg-35" value="..1*" style="text;html=1;align=center;verticalAlign=middle;resizable=0;points=[];autosize=1;strokeColor=none;fillColor=none;" vertex="1" parent="WIyWlLk6GJQsqaUBKTNV-1">
          <mxGeometry x="917" y="383" width="40" height="30" as="geometry" />
        </mxCell>
        <mxCell id="6pNd7uK-casRPseIqEdg-36" value="" style="endArrow=none;dashed=1;html=1;dashPattern=1 3;strokeWidth=2;rounded=0;exitX=-0.018;exitY=0.942;exitDx=0;exitDy=0;exitPerimeter=0;entryX=0.993;entryY=0.279;entryDx=0;entryDy=0;entryPerimeter=0;" edge="1" parent="WIyWlLk6GJQsqaUBKTNV-1" source="6pNd7uK-casRPseIqEdg-16" target="6pNd7uK-casRPseIqEdg-20">
          <mxGeometry width="50" height="50" relative="1" as="geometry">
            <mxPoint x="982" y="210" as="sourcePoint" />
            <mxPoint x="910" y="175" as="targetPoint" />
          </mxGeometry>
        </mxCell>
        <mxCell id="6pNd7uK-casRPseIqEdg-37" value="..1" style="text;html=1;align=center;verticalAlign=middle;resizable=0;points=[];autosize=1;strokeColor=none;fillColor=none;" vertex="1" parent="WIyWlLk6GJQsqaUBKTNV-1">
          <mxGeometry x="991" y="140" width="40" height="30" as="geometry" />
        </mxCell>
        <mxCell id="6pNd7uK-casRPseIqEdg-41" value="1*.." style="text;html=1;align=center;verticalAlign=middle;resizable=0;points=[];autosize=1;strokeColor=none;fillColor=none;" vertex="1" parent="WIyWlLk6GJQsqaUBKTNV-1">
          <mxGeometry x="906" y="140" width="40" height="30" as="geometry" />
        </mxCell>
        <mxCell id="6pNd7uK-casRPseIqEdg-45" value="GenerateJobColour" style="swimlane;fontStyle=1;align=center;verticalAlign=top;childLayout=stackLayout;horizontal=1;startSize=26;horizontalStack=0;resizeParent=1;resizeParentMax=0;resizeLast=0;collapsible=1;marginBottom=0;whiteSpace=wrap;html=1;" vertex="1" parent="WIyWlLk6GJQsqaUBKTNV-1">
          <mxGeometry x="620" y="352" width="296" height="92" as="geometry" />
        </mxCell>
        <mxCell id="6pNd7uK-casRPseIqEdg-46" value="&lt;div&gt;&lt;div&gt;&lt;br&gt;&lt;/div&gt;&lt;/div&gt;" style="text;strokeColor=#000000;fillColor=#FFFFFF;align=left;verticalAlign=top;spacingLeft=4;spacingRight=4;overflow=hidden;rotatable=0;points=[[0,0.5],[1,0.5]];portConstraint=eastwest;whiteSpace=wrap;html=1;" vertex="1" parent="6pNd7uK-casRPseIqEdg-45">
          <mxGeometry y="26" width="296" height="34" as="geometry" />
        </mxCell>
        <mxCell id="6pNd7uK-casRPseIqEdg-47" value="+ GenerateJobIDColour(Scheduler) : Colour" style="text;strokeColor=#000000;fillColor=#FFFFFF;align=left;verticalAlign=top;spacingLeft=4;spacingRight=4;overflow=hidden;rotatable=0;points=[[0,0.5],[1,0.5]];portConstraint=eastwest;whiteSpace=wrap;html=1;" vertex="1" parent="6pNd7uK-casRPseIqEdg-45">
          <mxGeometry y="60" width="296" height="32" as="geometry" />
        </mxCell>
        <mxCell id="6pNd7uK-casRPseIqEdg-48" value="" style="endArrow=block;dashed=1;endFill=0;endSize=12;html=1;rounded=0;entryX=0.5;entryY=0;entryDx=0;entryDy=0;exitX=0.504;exitY=1;exitDx=0;exitDy=0;exitPerimeter=0;" edge="1" parent="WIyWlLk6GJQsqaUBKTNV-1" source="6pNd7uK-casRPseIqEdg-20" target="6pNd7uK-casRPseIqEdg-45">
          <mxGeometry width="160" relative="1" as="geometry">
            <mxPoint x="686" y="330" as="sourcePoint" />
            <mxPoint x="846" y="330" as="targetPoint" />
          </mxGeometry>
        </mxCell>
        <mxCell id="6pNd7uK-casRPseIqEdg-49" value="uses" style="text;html=1;align=center;verticalAlign=middle;resizable=0;points=[];autosize=1;strokeColor=none;fillColor=none;" vertex="1" parent="WIyWlLk6GJQsqaUBKTNV-1">
          <mxGeometry x="770" y="310" width="50" height="30" as="geometry" />
        </mxCell>
      </root>
    </mxGraphModel>
  </diagram>
</mxfile>
